<mxfile host="Electron" modified="2024-08-31T09:08:52.459Z" agent="Mozilla/5.0 (Windows NT 10.0; Win64; x64) AppleWebKit/537.36 (KHTML, like Gecko) draw.io/24.1.0 Chrome/120.0.6099.109 Electron/28.1.0 Safari/537.36" etag="_j_AoTsbHRkx0WRvMqrM" version="24.1.0" type="device">
  <diagram name="Page-1" id="C9Bw0HUUipQQi55MbYol">
    <mxGraphModel dx="1177" dy="216" grid="1" gridSize="10" guides="1" tooltips="1" connect="1" arrows="1" fold="1" page="1" pageScale="1" pageWidth="827" pageHeight="1169" math="0" shadow="0">
      <root>
        <mxCell id="0" />
        <mxCell id="1" parent="0" />
        <mxCell id="6KjDL_NVeDuGdOvyarjw-100" value="" style="group;snapToPoint=0;fontSize=14;" parent="1" vertex="1" connectable="0">
          <mxGeometry x="-510" y="20" width="1660" height="1130" as="geometry" />
        </mxCell>
        <mxCell id="6KjDL_NVeDuGdOvyarjw-66" style="edgeStyle=orthogonalEdgeStyle;rounded=0;orthogonalLoop=1;jettySize=auto;html=1;exitX=1;exitY=0.5;exitDx=0;exitDy=0;snapToPoint=0;fontSize=14;" parent="6KjDL_NVeDuGdOvyarjw-100" source="6KjDL_NVeDuGdOvyarjw-60" target="6KjDL_NVeDuGdOvyarjw-62" edge="1">
          <mxGeometry relative="1" as="geometry" />
        </mxCell>
        <mxCell id="6KjDL_NVeDuGdOvyarjw-60" value="Client" style="rounded=0;whiteSpace=wrap;html=1;snapToPoint=0;fontSize=14;" parent="6KjDL_NVeDuGdOvyarjw-100" vertex="1">
          <mxGeometry x="10" width="140" height="60" as="geometry" />
        </mxCell>
        <mxCell id="6KjDL_NVeDuGdOvyarjw-67" style="edgeStyle=orthogonalEdgeStyle;rounded=0;orthogonalLoop=1;jettySize=auto;html=1;exitX=1;exitY=0.5;exitDx=0;exitDy=0;snapToPoint=0;fontSize=14;" parent="6KjDL_NVeDuGdOvyarjw-100" source="6KjDL_NVeDuGdOvyarjw-62" target="6KjDL_NVeDuGdOvyarjw-63" edge="1">
          <mxGeometry relative="1" as="geometry" />
        </mxCell>
        <mxCell id="6KjDL_NVeDuGdOvyarjw-62" value="Internet" style="rounded=0;whiteSpace=wrap;html=1;snapToPoint=0;fontSize=14;" parent="6KjDL_NVeDuGdOvyarjw-100" vertex="1">
          <mxGeometry x="217" width="140" height="60" as="geometry" />
        </mxCell>
        <mxCell id="6KjDL_NVeDuGdOvyarjw-63" value="Web server" style="rounded=0;whiteSpace=wrap;html=1;snapToPoint=0;fontSize=14;" parent="6KjDL_NVeDuGdOvyarjw-100" vertex="1">
          <mxGeometry x="420" width="140" height="60" as="geometry" />
        </mxCell>
        <mxCell id="6KjDL_NVeDuGdOvyarjw-95" value="" style="group;snapToPoint=0;fontSize=14;" parent="6KjDL_NVeDuGdOvyarjw-100" vertex="1" connectable="0">
          <mxGeometry y="120" width="1660" height="1010" as="geometry" />
        </mxCell>
        <mxCell id="6KjDL_NVeDuGdOvyarjw-65" value="" style="rounded=0;whiteSpace=wrap;html=1;snapToPoint=0;fontSize=14;" parent="6KjDL_NVeDuGdOvyarjw-95" vertex="1">
          <mxGeometry width="1660" height="1010" as="geometry" />
        </mxCell>
        <mxCell id="6KjDL_NVeDuGdOvyarjw-48" value="" style="group;snapToPoint=0;fontSize=14;" parent="6KjDL_NVeDuGdOvyarjw-95" vertex="1" connectable="0">
          <mxGeometry x="473.30578512396687" y="83.39449541284404" width="1015.206611570248" height="630.0917431192661" as="geometry" />
        </mxCell>
        <mxCell id="6KjDL_NVeDuGdOvyarjw-1" value="" style="rounded=0;whiteSpace=wrap;html=1;container=0;snapToPoint=0;fontSize=14;" parent="6KjDL_NVeDuGdOvyarjw-48" vertex="1">
          <mxGeometry width="1015.206611570248" height="630.0917431192661" as="geometry" />
        </mxCell>
        <mxCell id="6KjDL_NVeDuGdOvyarjw-3" value="AWS Virtual Private Computer" style="text;html=1;align=center;verticalAlign=middle;whiteSpace=wrap;rounded=0;container=0;snapToPoint=0;fontSize=14;" parent="6KjDL_NVeDuGdOvyarjw-48" vertex="1">
          <mxGeometry x="10.642462529766073" y="6.356934945788156" width="161.42645468553016" height="19.07080483736447" as="geometry" />
        </mxCell>
        <mxCell id="6KjDL_NVeDuGdOvyarjw-37" value="" style="group;snapToPoint=0;fontSize=14;" parent="6KjDL_NVeDuGdOvyarjw-48" vertex="1" connectable="0">
          <mxGeometry x="352.7412802913573" y="52.231909924937455" width="307.09183525676104" height="156.04373644703918" as="geometry" />
        </mxCell>
        <mxCell id="6KjDL_NVeDuGdOvyarjw-21" value="" style="rounded=1;whiteSpace=wrap;html=1;arcSize=6;container=0;snapToPoint=0;fontSize=14;" parent="6KjDL_NVeDuGdOvyarjw-37" vertex="1">
          <mxGeometry width="307.0918352567611" height="156.0437364470392" as="geometry" />
        </mxCell>
        <mxCell id="6KjDL_NVeDuGdOvyarjw-22" value="EC2 Instance" style="text;html=1;align=center;verticalAlign=middle;whiteSpace=wrap;rounded=0;container=0;snapToPoint=0;fontSize=14;" parent="6KjDL_NVeDuGdOvyarjw-37" vertex="1">
          <mxGeometry x="6.674129219580281" y="7.090237274812331" width="116.16260488312416" height="21.28046455796497" as="geometry" />
        </mxCell>
        <mxCell id="6KjDL_NVeDuGdOvyarjw-24" value="Dockerized Spring Boot&lt;div style=&quot;font-size: 14px;&quot;&gt;Back-End microservice 1 instance 1&lt;/div&gt;" style="rounded=1;whiteSpace=wrap;html=1;arcSize=6;container=0;snapToPoint=0;fontSize=14;" parent="6KjDL_NVeDuGdOvyarjw-37" vertex="1">
          <mxGeometry x="54.25289089536112" y="39.01093411175977" width="204.72789017117407" height="87.77460175145957" as="geometry" />
        </mxCell>
        <mxCell id="6KjDL_NVeDuGdOvyarjw-38" value="" style="group;snapToPoint=0;fontSize=14;" parent="6KjDL_NVeDuGdOvyarjw-48" vertex="1" connectable="0">
          <mxGeometry x="34.41378344305925" y="54.34183277731441" width="285.1567041669924" height="153.9338135946622" as="geometry" />
        </mxCell>
        <mxCell id="6KjDL_NVeDuGdOvyarjw-5" value="" style="rounded=1;whiteSpace=wrap;html=1;arcSize=6;container=0;snapToPoint=0;fontSize=14;" parent="6KjDL_NVeDuGdOvyarjw-38" vertex="1">
          <mxGeometry width="285.1567041669924" height="153.93381359466224" as="geometry" />
        </mxCell>
        <mxCell id="6KjDL_NVeDuGdOvyarjw-6" value="EC2 Instance" style="text;html=1;align=center;verticalAlign=middle;whiteSpace=wrap;rounded=0;container=0;snapToPoint=0;fontSize=14;" parent="6KjDL_NVeDuGdOvyarjw-38" vertex="1">
          <mxGeometry x="6.197405703895967" y="6.994367655207465" width="107.86527596290101" height="20.99272382897206" as="geometry" />
        </mxCell>
        <mxCell id="6KjDL_NVeDuGdOvyarjw-17" value="Dockerized Angular&lt;div style=&quot;font-size: 14px;&quot;&gt;Front-End instance 1&lt;/div&gt;" style="rounded=1;whiteSpace=wrap;html=1;arcSize=6;container=0;snapToPoint=0;fontSize=14;" parent="6KjDL_NVeDuGdOvyarjw-38" vertex="1">
          <mxGeometry x="50.37768440283532" y="38.48345339866554" width="190.1044694446617" height="86.58777014699753" as="geometry" />
        </mxCell>
        <mxCell id="6KjDL_NVeDuGdOvyarjw-39" value="" style="group;snapToPoint=0;fontSize=14;" parent="6KjDL_NVeDuGdOvyarjw-48" vertex="1" connectable="0">
          <mxGeometry x="696.8791147219498" y="232.704126355296" width="281.75675884807833" height="153.9338135946622" as="geometry" />
        </mxCell>
        <mxCell id="6KjDL_NVeDuGdOvyarjw-26" value="" style="rounded=1;whiteSpace=wrap;html=1;arcSize=6;container=0;snapToPoint=0;fontSize=14;" parent="6KjDL_NVeDuGdOvyarjw-39" vertex="1">
          <mxGeometry width="281.75675884807816" height="153.93381359466224" as="geometry" />
        </mxCell>
        <mxCell id="6KjDL_NVeDuGdOvyarjw-27" value="RDS Instance" style="text;html=1;align=center;verticalAlign=middle;whiteSpace=wrap;rounded=0;container=0;snapToPoint=0;fontSize=14;" parent="6KjDL_NVeDuGdOvyarjw-39" vertex="1">
          <mxGeometry x="6.123513558964912" y="6.994367655207465" width="106.57918998026638" height="20.992723828972064" as="geometry" />
        </mxCell>
        <mxCell id="6KjDL_NVeDuGdOvyarjw-29" value="PostgreSQL database" style="rounded=1;whiteSpace=wrap;html=1;arcSize=6;container=0;snapToPoint=0;fontSize=14;" parent="6KjDL_NVeDuGdOvyarjw-39" vertex="1">
          <mxGeometry x="49.77702739649382" y="38.48345339866557" width="187.8378392320522" height="86.5877701469975" as="geometry" />
        </mxCell>
        <mxCell id="6KjDL_NVeDuGdOvyarjw-40" value="" style="group;snapToPoint=0;fontSize=14;" parent="6KjDL_NVeDuGdOvyarjw-48" vertex="1" connectable="0">
          <mxGeometry x="352.7412802913573" y="231.65053377814846" width="307.09183525676104" height="156.04373644703918" as="geometry" />
        </mxCell>
        <mxCell id="6KjDL_NVeDuGdOvyarjw-41" value="" style="rounded=1;whiteSpace=wrap;html=1;arcSize=6;container=0;snapToPoint=0;fontSize=14;" parent="6KjDL_NVeDuGdOvyarjw-40" vertex="1">
          <mxGeometry width="307.0918352567611" height="156.0437364470392" as="geometry" />
        </mxCell>
        <mxCell id="6KjDL_NVeDuGdOvyarjw-42" value="EC2 Instance" style="text;html=1;align=center;verticalAlign=middle;whiteSpace=wrap;rounded=0;container=0;snapToPoint=0;fontSize=14;" parent="6KjDL_NVeDuGdOvyarjw-40" vertex="1">
          <mxGeometry x="6.674129219580281" y="7.090237274812331" width="116.16260488312416" height="21.28046455796497" as="geometry" />
        </mxCell>
        <mxCell id="6KjDL_NVeDuGdOvyarjw-43" value="Dockerized Spring Boot&lt;div style=&quot;font-size: 14px;&quot;&gt;Back-End microservice 2 instance 1&lt;/div&gt;" style="rounded=1;whiteSpace=wrap;html=1;arcSize=6;container=0;snapToPoint=0;fontSize=14;" parent="6KjDL_NVeDuGdOvyarjw-40" vertex="1">
          <mxGeometry x="54.25289089536112" y="39.01093411175977" width="204.72789017117407" height="87.77460175145957" as="geometry" />
        </mxCell>
        <mxCell id="6KjDL_NVeDuGdOvyarjw-44" value="" style="group;snapToPoint=0;fontSize=14;" parent="6KjDL_NVeDuGdOvyarjw-48" vertex="1" connectable="0">
          <mxGeometry x="352.7412802913573" y="426.23853211009174" width="307.09183525676104" height="156.04373644703918" as="geometry" />
        </mxCell>
        <mxCell id="6KjDL_NVeDuGdOvyarjw-45" value="" style="rounded=1;whiteSpace=wrap;html=1;arcSize=6;container=0;snapToPoint=0;fontSize=14;" parent="6KjDL_NVeDuGdOvyarjw-44" vertex="1">
          <mxGeometry width="307.0918352567611" height="156.0437364470392" as="geometry" />
        </mxCell>
        <mxCell id="6KjDL_NVeDuGdOvyarjw-46" value="EC2 Instance" style="text;html=1;align=center;verticalAlign=middle;whiteSpace=wrap;rounded=0;container=0;snapToPoint=0;fontSize=14;" parent="6KjDL_NVeDuGdOvyarjw-44" vertex="1">
          <mxGeometry x="6.674129219580281" y="7.090237274812331" width="116.16260488312416" height="21.28046455796497" as="geometry" />
        </mxCell>
        <mxCell id="6KjDL_NVeDuGdOvyarjw-47" value="Dockerized NodeJS&lt;div style=&quot;font-size: 14px;&quot;&gt;WebSockets&lt;/div&gt;&lt;div style=&quot;font-size: 14px;&quot;&gt;Back-End instance 1&lt;/div&gt;" style="rounded=1;whiteSpace=wrap;html=1;arcSize=6;container=0;snapToPoint=0;fontSize=14;" parent="6KjDL_NVeDuGdOvyarjw-44" vertex="1">
          <mxGeometry x="54.25289089536112" y="39.01093411175977" width="204.72789017117407" height="87.77460175145957" as="geometry" />
        </mxCell>
        <mxCell id="6KjDL_NVeDuGdOvyarjw-49" value="" style="group;snapToPoint=0;fontSize=14;" parent="6KjDL_NVeDuGdOvyarjw-48" vertex="1" connectable="0">
          <mxGeometry x="34.41378344305925" y="238.07843828190158" width="285.1567041669924" height="153.9338135946622" as="geometry" />
        </mxCell>
        <mxCell id="6KjDL_NVeDuGdOvyarjw-50" value="" style="rounded=1;whiteSpace=wrap;html=1;arcSize=6;container=0;snapToPoint=0;fontSize=14;" parent="6KjDL_NVeDuGdOvyarjw-49" vertex="1">
          <mxGeometry width="285.1567041669924" height="153.93381359466224" as="geometry" />
        </mxCell>
        <mxCell id="6KjDL_NVeDuGdOvyarjw-51" value="EC2 Instance" style="text;html=1;align=center;verticalAlign=middle;whiteSpace=wrap;rounded=0;container=0;snapToPoint=0;fontSize=14;" parent="6KjDL_NVeDuGdOvyarjw-49" vertex="1">
          <mxGeometry x="6.197405703895967" y="6.994367655207465" width="107.86527596290101" height="20.99272382897206" as="geometry" />
        </mxCell>
        <mxCell id="6KjDL_NVeDuGdOvyarjw-52" value="Dockerized Angular&lt;div style=&quot;font-size: 14px;&quot;&gt;Front-End instance 2&lt;/div&gt;" style="rounded=1;whiteSpace=wrap;html=1;arcSize=6;container=0;snapToPoint=0;fontSize=14;" parent="6KjDL_NVeDuGdOvyarjw-49" vertex="1">
          <mxGeometry x="50.37768440283532" y="38.48345339866554" width="190.1044694446617" height="86.58777014699753" as="geometry" />
        </mxCell>
        <mxCell id="6KjDL_NVeDuGdOvyarjw-53" value="" style="group;snapToPoint=0;fontSize=14;" parent="6KjDL_NVeDuGdOvyarjw-48" vertex="1" connectable="0">
          <mxGeometry x="34.41378344305925" y="426.23853211009174" width="285.1567041669924" height="153.9338135946622" as="geometry" />
        </mxCell>
        <mxCell id="6KjDL_NVeDuGdOvyarjw-54" value="" style="rounded=1;whiteSpace=wrap;html=1;arcSize=6;container=0;snapToPoint=0;fontSize=14;" parent="6KjDL_NVeDuGdOvyarjw-53" vertex="1">
          <mxGeometry width="285.1567041669924" height="153.93381359466224" as="geometry" />
        </mxCell>
        <mxCell id="6KjDL_NVeDuGdOvyarjw-55" value="EC2 Instance" style="text;html=1;align=center;verticalAlign=middle;whiteSpace=wrap;rounded=0;container=0;snapToPoint=0;fontSize=14;" parent="6KjDL_NVeDuGdOvyarjw-53" vertex="1">
          <mxGeometry x="6.197405703895967" y="6.994367655207465" width="107.86527596290101" height="20.99272382897206" as="geometry" />
        </mxCell>
        <mxCell id="6KjDL_NVeDuGdOvyarjw-56" value="Dockerized Angular&lt;div style=&quot;font-size: 14px;&quot;&gt;Front-End instance 3&lt;/div&gt;" style="rounded=1;whiteSpace=wrap;html=1;arcSize=6;container=0;snapToPoint=0;fontSize=14;" parent="6KjDL_NVeDuGdOvyarjw-53" vertex="1">
          <mxGeometry x="50.37768440283532" y="38.48345339866554" width="190.1044694446617" height="86.58777014699753" as="geometry" />
        </mxCell>
        <mxCell id="6KjDL_NVeDuGdOvyarjw-79" style="edgeStyle=orthogonalEdgeStyle;rounded=0;orthogonalLoop=1;jettySize=auto;html=1;entryX=-0.001;entryY=0.538;entryDx=0;entryDy=0;snapToPoint=0;entryPerimeter=0;fontSize=14;" parent="6KjDL_NVeDuGdOvyarjw-48" source="6KjDL_NVeDuGdOvyarjw-50" target="6KjDL_NVeDuGdOvyarjw-41" edge="1">
          <mxGeometry relative="1" as="geometry" />
        </mxCell>
        <mxCell id="6KjDL_NVeDuGdOvyarjw-80" style="edgeStyle=orthogonalEdgeStyle;rounded=0;orthogonalLoop=1;jettySize=auto;html=1;entryX=-0.002;entryY=0.489;entryDx=0;entryDy=0;snapToPoint=0;entryPerimeter=0;exitX=1;exitY=0.5;exitDx=0;exitDy=0;fontSize=14;" parent="6KjDL_NVeDuGdOvyarjw-48" source="6KjDL_NVeDuGdOvyarjw-54" target="6KjDL_NVeDuGdOvyarjw-45" edge="1">
          <mxGeometry relative="1" as="geometry" />
        </mxCell>
        <mxCell id="6KjDL_NVeDuGdOvyarjw-81" style="edgeStyle=orthogonalEdgeStyle;rounded=0;orthogonalLoop=1;jettySize=auto;html=1;exitX=1;exitY=0.5;exitDx=0;exitDy=0;entryX=0;entryY=0.5;entryDx=0;entryDy=0;snapToPoint=0;fontSize=14;" parent="6KjDL_NVeDuGdOvyarjw-48" source="6KjDL_NVeDuGdOvyarjw-21" target="6KjDL_NVeDuGdOvyarjw-26" edge="1">
          <mxGeometry relative="1" as="geometry">
            <Array as="points">
              <mxPoint x="677" y="130" />
              <mxPoint x="677" y="310" />
            </Array>
          </mxGeometry>
        </mxCell>
        <mxCell id="6KjDL_NVeDuGdOvyarjw-83" style="edgeStyle=orthogonalEdgeStyle;rounded=0;orthogonalLoop=1;jettySize=auto;html=1;entryX=0;entryY=0.5;entryDx=0;entryDy=0;snapToPoint=0;fontSize=14;" parent="6KjDL_NVeDuGdOvyarjw-48" source="6KjDL_NVeDuGdOvyarjw-45" target="6KjDL_NVeDuGdOvyarjw-26" edge="1">
          <mxGeometry relative="1" as="geometry">
            <Array as="points">
              <mxPoint x="677" y="504" />
              <mxPoint x="677" y="310" />
            </Array>
          </mxGeometry>
        </mxCell>
        <mxCell id="6KjDL_NVeDuGdOvyarjw-84" style="edgeStyle=orthogonalEdgeStyle;rounded=0;orthogonalLoop=1;jettySize=auto;html=1;entryX=0;entryY=0.5;entryDx=0;entryDy=0;snapToPoint=0;fontSize=14;" parent="6KjDL_NVeDuGdOvyarjw-48" source="6KjDL_NVeDuGdOvyarjw-41" target="6KjDL_NVeDuGdOvyarjw-26" edge="1">
          <mxGeometry relative="1" as="geometry" />
        </mxCell>
        <mxCell id="6KjDL_NVeDuGdOvyarjw-99" style="edgeStyle=orthogonalEdgeStyle;rounded=0;orthogonalLoop=1;jettySize=auto;html=1;entryX=0.5;entryY=1;entryDx=0;entryDy=0;snapToPoint=0;startArrow=block;startFill=1;fontSize=14;exitX=0.5;exitY=0;exitDx=0;exitDy=0;" parent="6KjDL_NVeDuGdOvyarjw-48" source="6KjDL_NVeDuGdOvyarjw-41" target="6KjDL_NVeDuGdOvyarjw-21" edge="1">
          <mxGeometry relative="1" as="geometry">
            <mxPoint x="506.69421487603313" y="226.60550458715596" as="sourcePoint" />
          </mxGeometry>
        </mxCell>
        <mxCell id="pRmJNWu_2FzetfXYODvn-2" style="edgeStyle=orthogonalEdgeStyle;rounded=0;orthogonalLoop=1;jettySize=auto;html=1;entryX=0.001;entryY=0.508;entryDx=0;entryDy=0;entryPerimeter=0;fontSize=14;" parent="6KjDL_NVeDuGdOvyarjw-48" source="6KjDL_NVeDuGdOvyarjw-5" target="6KjDL_NVeDuGdOvyarjw-21" edge="1">
          <mxGeometry relative="1" as="geometry" />
        </mxCell>
        <mxCell id="6KjDL_NVeDuGdOvyarjw-69" value="Amazon Web Services" style="text;html=1;align=center;verticalAlign=middle;whiteSpace=wrap;rounded=0;snapToPoint=0;fontSize=14;" parent="6KjDL_NVeDuGdOvyarjw-95" vertex="1">
          <mxGeometry x="20.578512396694215" y="9.26605504587156" width="102.89256198347107" height="27.798165137614678" as="geometry" />
        </mxCell>
        <mxCell id="6KjDL_NVeDuGdOvyarjw-71" value="" style="group;snapToPoint=0;fontSize=14;" parent="6KjDL_NVeDuGdOvyarjw-95" vertex="1" connectable="0">
          <mxGeometry x="75.45454545454545" y="324.3119266055046" width="205.78512396694214" height="148.25688073394497" as="geometry" />
        </mxCell>
        <mxCell id="6KjDL_NVeDuGdOvyarjw-70" value="" style="rounded=0;whiteSpace=wrap;html=1;snapToPoint=0;fontSize=14;" parent="6KjDL_NVeDuGdOvyarjw-71" vertex="1">
          <mxGeometry width="205.78512396694214" height="148.25688073394497" as="geometry" />
        </mxCell>
        <mxCell id="6KjDL_NVeDuGdOvyarjw-64" value="Application Load balancer" style="rounded=1;whiteSpace=wrap;html=1;snapToPoint=0;fontSize=14;" parent="6KjDL_NVeDuGdOvyarjw-71" vertex="1">
          <mxGeometry x="41.15702479338843" y="46.3302752293578" width="123.4710743801653" height="78.76146788990826" as="geometry" />
        </mxCell>
        <mxCell id="6KjDL_NVeDuGdOvyarjw-73" value="AWS ELB" style="text;html=1;align=center;verticalAlign=middle;whiteSpace=wrap;rounded=0;snapToPoint=0;fontSize=14;" parent="6KjDL_NVeDuGdOvyarjw-71" vertex="1">
          <mxGeometry x="6.859504132231405" y="13.89908256880734" width="68.59504132231406" height="27.79816513761468" as="geometry" />
        </mxCell>
        <mxCell id="6KjDL_NVeDuGdOvyarjw-74" style="edgeStyle=orthogonalEdgeStyle;rounded=0;orthogonalLoop=1;jettySize=auto;html=1;exitX=1;exitY=0.5;exitDx=0;exitDy=0;entryX=0;entryY=0.5;entryDx=0;entryDy=0;snapToPoint=0;fontSize=14;" parent="6KjDL_NVeDuGdOvyarjw-95" source="6KjDL_NVeDuGdOvyarjw-70" target="6KjDL_NVeDuGdOvyarjw-5" edge="1">
          <mxGeometry relative="1" as="geometry" />
        </mxCell>
        <mxCell id="6KjDL_NVeDuGdOvyarjw-75" style="edgeStyle=orthogonalEdgeStyle;rounded=0;orthogonalLoop=1;jettySize=auto;html=1;entryX=0;entryY=0.5;entryDx=0;entryDy=0;snapToPoint=0;fontSize=14;" parent="6KjDL_NVeDuGdOvyarjw-95" source="6KjDL_NVeDuGdOvyarjw-70" target="6KjDL_NVeDuGdOvyarjw-50" edge="1">
          <mxGeometry relative="1" as="geometry" />
        </mxCell>
        <mxCell id="6KjDL_NVeDuGdOvyarjw-76" style="edgeStyle=orthogonalEdgeStyle;rounded=0;orthogonalLoop=1;jettySize=auto;html=1;entryX=0;entryY=0.5;entryDx=0;entryDy=0;snapToPoint=0;fontSize=14;" parent="6KjDL_NVeDuGdOvyarjw-95" source="6KjDL_NVeDuGdOvyarjw-70" target="6KjDL_NVeDuGdOvyarjw-54" edge="1">
          <mxGeometry relative="1" as="geometry" />
        </mxCell>
        <mxCell id="6KjDL_NVeDuGdOvyarjw-92" value="" style="group;snapToPoint=0;fontSize=14;" parent="6KjDL_NVeDuGdOvyarjw-95" vertex="1" connectable="0">
          <mxGeometry x="823.1404958677685" y="769.0825688073395" width="322.396694214876" height="166.78899082568807" as="geometry" />
        </mxCell>
        <mxCell id="6KjDL_NVeDuGdOvyarjw-85" value="" style="rounded=0;whiteSpace=wrap;html=1;snapToPoint=0;fontSize=14;" parent="6KjDL_NVeDuGdOvyarjw-92" vertex="1">
          <mxGeometry width="322.396694214876" height="166.78899082568807" as="geometry" />
        </mxCell>
        <mxCell id="6KjDL_NVeDuGdOvyarjw-88" value="AWS S3" style="text;html=1;align=center;verticalAlign=middle;whiteSpace=wrap;rounded=0;snapToPoint=0;fontSize=14;" parent="6KjDL_NVeDuGdOvyarjw-92" vertex="1">
          <mxGeometry x="6.859504132231403" y="9.26605504587156" width="68.59504132231403" height="27.798165137614678" as="geometry" />
        </mxCell>
        <mxCell id="6KjDL_NVeDuGdOvyarjw-89" value="AWS Bucket" style="rounded=1;whiteSpace=wrap;html=1;arcSize=20;snapToPoint=0;fontSize=14;" parent="6KjDL_NVeDuGdOvyarjw-92" vertex="1">
          <mxGeometry x="27.438016528925612" y="55.596330275229356" width="123.47107438016525" height="69.4954128440367" as="geometry" />
        </mxCell>
        <mxCell id="6KjDL_NVeDuGdOvyarjw-91" value="AWS Glacier" style="rounded=1;whiteSpace=wrap;html=1;arcSize=20;snapToPoint=0;fontSize=14;" parent="6KjDL_NVeDuGdOvyarjw-92" vertex="1">
          <mxGeometry x="169.4297520661157" y="55.596330275229356" width="123.47107438016525" height="69.4954128440367" as="geometry" />
        </mxCell>
        <mxCell id="6KjDL_NVeDuGdOvyarjw-93" style="edgeStyle=orthogonalEdgeStyle;rounded=0;orthogonalLoop=1;jettySize=auto;html=1;entryX=0.5;entryY=0;entryDx=0;entryDy=0;snapToPoint=0;fontSize=14;" parent="6KjDL_NVeDuGdOvyarjw-95" source="6KjDL_NVeDuGdOvyarjw-45" target="6KjDL_NVeDuGdOvyarjw-89" edge="1">
          <mxGeometry relative="1" as="geometry" />
        </mxCell>
        <mxCell id="6KjDL_NVeDuGdOvyarjw-94" style="edgeStyle=orthogonalEdgeStyle;rounded=0;orthogonalLoop=1;jettySize=auto;html=1;exitX=0.5;exitY=1;exitDx=0;exitDy=0;entryX=0.5;entryY=0;entryDx=0;entryDy=0;snapToPoint=0;startArrow=block;startFill=1;fontSize=14;" parent="6KjDL_NVeDuGdOvyarjw-95" source="6KjDL_NVeDuGdOvyarjw-45" target="6KjDL_NVeDuGdOvyarjw-91" edge="1">
          <mxGeometry relative="1" as="geometry" />
        </mxCell>
        <mxCell id="6KjDL_NVeDuGdOvyarjw-96" style="edgeStyle=orthogonalEdgeStyle;rounded=0;orthogonalLoop=1;jettySize=auto;html=1;entryX=0;entryY=0.5;entryDx=0;entryDy=0;snapToPoint=0;fontSize=14;" parent="6KjDL_NVeDuGdOvyarjw-100" source="6KjDL_NVeDuGdOvyarjw-63" target="6KjDL_NVeDuGdOvyarjw-70" edge="1">
          <mxGeometry relative="1" as="geometry">
            <Array as="points">
              <mxPoint x="490" y="180" />
              <mxPoint x="280" y="180" />
              <mxPoint x="280" y="300" />
              <mxPoint x="30" y="300" />
              <mxPoint x="30" y="518" />
            </Array>
          </mxGeometry>
        </mxCell>
      </root>
    </mxGraphModel>
  </diagram>
</mxfile>
